# xmcd CD database file
#
# Track frame offsets:
#	150
#	21804
#	44951
#	48508
#	69474
#	77068
#	100102
#	133114
#	147553
#	151010
#	172638
#	180414
#	210490
#	212273
#	233127
#
# Disc length: 3361 seconds
#
# Revision: 0
# Processed by: cddbd v1.5.2PL0 Copyright (c) Steve Scherf et al.
# Submitted via: CDex 1.51
#
DISCID=c40d1f0f
DTITLE=Oscar Klein Quartett - Live in Oberpullendorf CD1
DYEAR=1998
DGENRE=Jazz
TTITLE0=Ansage Moderation Oscar Klein
TTITLE1=Indiana
TTITLE2=Ansage
TTITLE3=Basin Street Blues
TTITLE4=Ansage
TTITLE5=Three Little Words
TTITLE6=Ansage
TTITLE7=Blues For Lightning
TTITLE8=Ansage
TTITLE9=The Sheik Of Araby
TTITLE10=Ansage
TTITLE11=Creole Love Call
TTITLE12=Ansage
TTITLE13=Exactly Like You
TTITLE14=Ansage
EXTD=YEAR: 1998
EXTT0=
EXTT1=
EXTT2=
EXTT3=
EXTT4=
EXTT5=
EXTT6=
EXTT7=
EXTT8=
EXTT9=
EXTT10=
EXTT11=
EXTT12=
EXTT13=
EXTT14=
PLAYORDER=
